<?xml version="1.0" standalone="no"?>
<!DOCTYPE svg PUBLIC "-//W3C//DTD SVG 20010904//EN"
 "http://www.w3.org/TR/2001/REC-SVG-20010904/DTD/svg10.dtd">
<svg version="1.0" xmlns="http://www.w3.org/2000/svg"
 width="1024.000000pt" height="1024.000000pt" viewBox="0 0 1024.000000 1024.000000"
 preserveAspectRatio="xMidYMid meet">
<metadata>
Created by potrace 1.14, written by Peter Selinger 2001-2017
</metadata>
<g transform="translate(0.000000,1024.000000) scale(0.100000,-0.100000)"
fill="#000000" stroke="none">
<path d="M3040 10234 c-301 -30 -410 -48 -605 -99 -449 -117 -857 -322 -1220
-611 -141 -113 -386 -358 -499 -499 -378 -475 -600 -998 -693 -1636 -15 -103
-17 -316 -21 -2169 -2 -1481 0 -2098 8 -2210 32 -429 137 -812 331 -1205 441
-894 1283 -1543 2259 -1739 322 -65 157 -61 2520 -61 2005 0 2153 1 2270 18
626 89 1122 296 1610 673 148 114 430 396 544 544 374 485 577 967 673 1600
16 106 17 280 21 2185 2 1474 0 2112 -8 2215 -51 653 -295 1272 -706 1785
-113 142 -358 387 -499 499 -419 334 -922 565 -1436 661 -279 51 -153 49
-2414 50 -1155 1 -2116 1 -2135 -1z m-1067 -3996 c235 -942 428 -1731 428
-1753 1 -32 4 -25 15 35 8 41 202 829 432 1750 l418 1675 217 3 217 2 0 -2610
0 -2610 -220 0 -220 0 0 1672 c0 1458 2 1689 16 1801 8 70 14 132 12 138 -3 9
-282 -1033 -670 -2503 l-163 -618 -47 0 -47 0 -15 53 c-16 55 -341 1279 -642
2414 -98 370 -179 671 -181 669 -2 -2 3 -60 12 -129 13 -108 15 -351 15 -1811
l0 -1686 -215 0 -215 0 0 2610 0 2610 213 0 213 0 427 -1712z m2991 1695 c28
-93 846 -3403 846 -3425 0 -15 5 -28 10 -28 6 0 10 13 10 29 0 22 776 3163
840 3402 l11 39 214 0 215 0 0 -2610 0 -2610 -220 0 -220 0 0 1653 c0 1403 2
1672 15 1782 8 72 17 150 20 175 3 25 -60 -198 -140 -495 -164 -609 -695
-2612 -695 -2620 0 -3 -22 -5 -49 -5 -42 0 -50 3 -55 23 -3 12 -120 452 -259
977 -140 525 -326 1226 -413 1557 -87 331 -160 600 -162 598 -2 -1 5 -56 15
-121 16 -110 18 -248 21 -1821 l2 -1703 -220 0 -220 0 0 2610 0 2610 214 0
c196 0 215 -2 220 -17z m3446 -2388 l0 -2405 600 0 600 0 0 -205 0 -205 -835
0 -835 0 0 2610 0 2610 235 0 235 0 0 -2405z"/>
<path d="M3291 6374 c0 -11 3 -14 6 -6 3 7 2 16 -1 19 -3 4 -6 -2 -5 -13z"/>
</g>
</svg>
